<svg width="100" height="36" viewBox="0 0 100 36" fill="none" xmlns="http://www.w3.org/2000/svg">
<path d="M56.336 9V27H53.528L53.48 26.232C53.016 26.568 52.528 26.824 52.016 27C51.52 27.16 50.928 27.24 50.24 27.24C49.072 27.24 48.064 26.96 47.216 26.4C46.384 25.84 45.752 25.088 45.32 24.144C44.888 23.2 44.672 22.16 44.672 21.024C44.672 19.888 44.888 18.848 45.32 17.904C45.752 16.96 46.384 16.208 47.216 15.648C48.064 15.088 49.072 14.808 50.24 14.808C51.408 14.808 52.448 15.128 53.36 15.768V9H56.336ZM50.672 24.792C51.616 24.792 52.32 24.456 52.784 23.784C53.264 23.112 53.504 22.192 53.504 21.024C53.504 19.856 53.264 18.936 52.784 18.264C52.32 17.592 51.616 17.256 50.672 17.256C49.744 17.256 49.016 17.6 48.488 18.288C47.976 18.976 47.72 19.888 47.72 21.024C47.72 22.16 47.976 23.072 48.488 23.76C49.016 24.448 49.744 24.792 50.672 24.792ZM69.5669 15V27H66.7829L66.7349 26.28C66.3669 26.552 65.9429 26.784 65.4629 26.976C64.9829 27.152 64.5189 27.24 64.0709 27.24C62.2949 27.24 60.9989 26.728 60.1829 25.704C59.3829 24.68 58.9829 23.264 58.9829 21.456V15H61.9589V21.456C61.9589 22.576 62.1429 23.408 62.5109 23.952C62.8949 24.48 63.5029 24.744 64.3349 24.744C65.2629 24.744 66.0149 24.408 66.5909 23.736V15H69.5669ZM77.9131 27.24C76.5851 27.24 75.4411 26.968 74.4811 26.424C73.5371 25.864 72.8251 25.112 72.3451 24.168C71.8651 23.224 71.6251 22.176 71.6251 21.024C71.6251 19.856 71.8651 18.8 72.3451 17.856C72.8251 16.896 73.5451 16.144 74.5051 15.6C75.4651 15.04 76.6331 14.76 78.0091 14.76C79.2411 14.76 80.3131 15.016 81.2251 15.528L80.9851 17.928C80.1211 17.48 79.2251 17.256 78.2971 17.256C77.1611 17.256 76.2731 17.6 75.6331 18.288C74.9931 18.976 74.6731 19.888 74.6731 21.024C74.6731 22.112 75.0011 23.016 75.6571 23.736C76.3131 24.44 77.1851 24.792 78.2731 24.792C79.1851 24.792 80.0971 24.528 81.0091 24L81.2731 26.52C80.8411 26.744 80.3291 26.92 79.7371 27.048C79.1611 27.176 78.5531 27.24 77.9131 27.24ZM85.859 27.24C84.867 27.24 84.035 26.92 83.363 26.28C82.707 25.624 82.379 24.744 82.379 23.64C82.379 22.6 82.755 21.768 83.507 21.144C84.259 20.504 85.147 20.056 86.171 19.8C87.195 19.528 88.179 19.376 89.123 19.344C89.091 18.64 88.907 18.136 88.571 17.832C88.251 17.528 87.715 17.376 86.963 17.376C86.435 17.376 85.915 17.448 85.403 17.592C84.907 17.736 84.331 17.968 83.675 18.288L83.411 15.864C84.867 15.16 86.323 14.808 87.779 14.808C89.187 14.808 90.259 15.192 90.995 15.96C91.747 16.728 92.123 17.952 92.123 19.632V22.872C92.123 23.48 92.147 23.92 92.195 24.192C92.259 24.448 92.355 24.616 92.483 24.696C92.627 24.76 92.859 24.792 93.179 24.792H93.563L93.299 27.24H92.219C91.563 27.24 91.011 27.12 90.563 26.88C90.115 26.624 89.771 26.28 89.531 25.848C89.147 26.28 88.619 26.624 87.947 26.88C87.291 27.12 86.595 27.24 85.859 27.24ZM87.107 24.96C87.411 24.96 87.755 24.888 88.139 24.744C88.523 24.584 88.859 24.368 89.147 24.096V21.36C88.187 21.408 87.339 21.616 86.603 21.984C85.867 22.352 85.499 22.864 85.499 23.52C85.499 24.016 85.627 24.384 85.883 24.624C86.139 24.848 86.547 24.96 87.107 24.96ZM94.9321 23.736H98.0521V27H94.9321V23.736Z" fill="white"/>
<rect width="36" height="36" rx="3" fill="#CB8461"/>
<path d="M18.176 24.24C16.784 24.24 15.592 23.96 14.6 23.4C13.624 22.824 12.888 22.064 12.392 21.12C11.912 20.16 11.672 19.096 11.672 17.928C11.672 16.808 11.904 15.784 12.368 14.856C12.832 13.928 13.504 13.192 14.384 12.648C15.264 12.088 16.312 11.808 17.528 11.808C18.648 11.808 19.592 12.04 20.36 12.504C21.144 12.968 21.728 13.592 22.112 14.376C22.512 15.16 22.712 16.04 22.712 17.016C22.712 17.496 22.648 18.04 22.52 18.648H14.768C14.928 19.704 15.344 20.496 16.016 21.024C16.688 21.536 17.496 21.792 18.44 21.792C19.736 21.792 20.936 21.464 22.04 20.808L22.184 23.328C21.672 23.6 21.072 23.824 20.384 24C19.712 24.16 18.976 24.24 18.176 24.24ZM19.688 16.632C19.688 16.008 19.512 15.456 19.16 14.976C18.808 14.496 18.264 14.256 17.528 14.256C16.792 14.256 16.2 14.472 15.752 14.904C15.304 15.336 15 15.912 14.84 16.632H19.688Z" fill="white"/>
</svg>
